# xmcd
#
# Track frame offsets:
#	150
#	13161
#	25609
#	37009
#	47907
#	63254
#	72905
#	86258
#	101744
#	112315
#	126242
#	140907
#
# Disc length: 2122 seconds
#
# Revision: 1
# Processed by: cddbd v1.4PL0 Copyright (c) Steve Scherf et al.
# Submitted via: dBpowerAMP V4.0
#
DISCID=ae08480c
DTITLE=Kenny Rogers - The Great Kenny Rogers  - Disc 2
DYEAR=1900
DGENRE=Country
TTITLE0=Ruben James
TTITLE1=Elvira
TTITLE2=Me And Bobby McGee
TTITLE3=Good Time Liberator
TTITLE4=Good Lady Of Toronto
TTITLE5=Where Does Rosie Go?
TTITLE6=I'm Going To Sing A Sad Song Suzie
TTITLE7=Tulsa Turnaround
TTITLE8=We All Got To Help Each Other
TTITLE9=After All
TTITLE10=Tell It All Brother
TTITLE11=The King Of Oak Street
EXTD=3 CD Set
EXTT0=
EXTT1=
EXTT2=
EXTT3=
EXTT4=
EXTT5=
EXTT6=
EXTT7=
EXTT8=
EXTT9=
EXTT10=
EXTT11=
PLAYORDER=
